# xmcd
#
# Track frame offsets:
#	150
#	19204
#	33015
#	49680
#	61951
#	74256
#	88536
#	109780
#	124728
#	141115
#	162702
#	180387
#
# Disc length: 2613 seconds
#
# Revision: 0
# Processed by: cddbd v1.4PL0 Copyright (c) Steve Scherf et al.
# Submitted via: dBpowerAMP V4.0
#
DISCID=9e0a330c
DTITLE=Christy McWilson - Bed Of Roses
DYEAR=2002
DGENRE=Folk-Rock
TTITLE0=Life's Little Enormities
TTITLE1=Lila Jean
TTITLE2=The Serpentine River
TTITLE3=True Believer
TTITLE4=805
TTITLE5=Shooting Fish In A Barrel
TTITLE6=Darkness, Darkness
TTITLE7=Sheep Song
TTITLE8=Bed Of Roses
TTITLE9=Not A Day Goes By
TTITLE10=Can't Stop A Train
TTITLE11=Tightrope
EXTD=New CD from Christy McWilson
EXTT0=
EXTT1=
EXTT2=
EXTT3=
EXTT4=
EXTT5=
EXTT6=
EXTT7=
EXTT8=
EXTT9=
EXTT10=
EXTT11=
PLAYORDER=
